solid OpenSCAD_Model
  facet normal 0.989818 0.14234 0
    outer loop
      vertex -30.8942 2 0.4
      vertex -31.1778 3.97213 0
      vertex -31.1778 3.97213 0.4
    endloop
  endfacet
  facet normal 0.989818 0.14234 0
    outer loop
      vertex -31.1778 3.97213 0
      vertex -30.8942 2 0.4
      vertex -30.8942 2 0
    endloop
  endfacet
  facet normal 0 1 -0
    outer loop
      vertex -36.898 8.92875 0
      vertex -38.8904 8.92875 0.4
      vertex -36.898 8.92875 0.4
    endloop
  endfacet
  facet normal 0 1 0
    outer loop
      vertex -38.8904 8.92875 0.4
      vertex -36.898 8.92875 0
      vertex -38.8904 8.92875 0
    endloop
  endfacet
  facet normal 0.755764 0.654844 0
    outer loop
      vertex -32.0055 5.78448 0.4
      vertex -33.3102 7.29025 0
      vertex -33.3102 7.29025 0.4
    endloop
  endfacet
  facet normal 0.755764 0.654844 0
    outer loop
      vertex -33.3102 7.29025 0
      vertex -32.0055 5.78448 0.4
      vertex -32.0055 5.78448 0
    endloop
  endfacet
  facet normal 0.909627 0.415426 0
    outer loop
      vertex -31.1778 3.97213 0.4
      vertex -32.0055 5.78448 0
      vertex -32.0055 5.78448 0.4
    endloop
  endfacet
  facet normal 0.909627 0.415426 0
    outer loop
      vertex -32.0055 5.78448 0
      vertex -31.1778 3.97213 0.4
      vertex -31.1778 3.97213 0
    endloop
  endfacet
  facet normal -0.755764 0.654844 0
    outer loop
      vertex -43.783 5.78448 0
      vertex -42.4783 7.29025 0.4
      vertex -42.4783 7.29025 0
    endloop
  endfacet
  facet normal -0.755764 0.654844 0
    outer loop
      vertex -42.4783 7.29025 0.4
      vertex -43.783 5.78448 0
      vertex -43.783 5.78448 0.4
    endloop
  endfacet
  facet normal 0 0 -1
    outer loop
      vertex -33.3102 -3.29025 0
      vertex -33.2171 -2.10478 0
      vertex -32.459 -2.30791 0
    endloop
  endfacet
  facet normal 0 0 -1
    outer loop
      vertex -34.9863 -4.36742 0
      vertex -33.2171 -2.10478 0
      vertex -33.3102 -3.29025 0
    endloop
  endfacet
  facet normal 0 0 -1
    outer loop
      vertex -36.898 -4.92875 0
      vertex -33.2171 -2.10478 0
      vertex -34.9863 -4.36742 0
    endloop
  endfacet
  facet normal 0 0 -1
    outer loop
      vertex -40.8837 2.32153 0
      vertex -36.898 -4.92875 0
      vertex -38.8904 -4.92875 0
    endloop
  endfacet
  facet normal 0 0 -1
    outer loop
      vertex -40.8837 2.32153 0
      vertex -38.8904 -4.92875 0
      vertex -40.8021 -4.36742 0
    endloop
  endfacet
  facet normal 0 0 -1
    outer loop
      vertex -36.898 -4.92875 0
      vertex -40.8837 2.32153 0
      vertex -33.2171 -2.10478 0
    endloop
  endfacet
  facet normal 0 -0 -1
    outer loop
      vertex -40.8837 2.32153 0
      vertex -40.8021 -4.36742 0
      vertex -42.4783 -3.29025 0
    endloop
  endfacet
  facet normal 0 0 -1
    outer loop
      vertex -31.9555 0.399994 0
      vertex -30.8942 2 0
      vertex -31.1243 0.399994 0
    endloop
  endfacet
  facet normal 0 0 -1
    outer loop
      vertex -33.9411 1.5464 0
      vertex -30.8942 2 0
      vertex -31.9555 0.399994 0
    endloop
  endfacet
  facet normal -0 0 -1
    outer loop
      vertex -30.8942 2 0
      vertex -33.9411 1.5464 0
      vertex -31.1778 3.97213 0
    endloop
  endfacet
  facet normal -0 0 -1
    outer loop
      vertex -31.1778 3.97213 0
      vertex -33.9411 1.5464 0
      vertex -31.9412 5.0105 0
    endloop
  endfacet
  facet normal 0 0 -1
    outer loop
      vertex -31.9412 5.0105 0
      vertex -32.0055 5.78448 0
      vertex -31.1778 3.97213 0
    endloop
  endfacet
  facet normal 0 0 -1
    outer loop
      vertex -35.0588 6.81052 0
      vertex -32.0055 5.78448 0
      vertex -31.9412 5.0105 0
    endloop
  endfacet
  facet normal 0 0 -1
    outer loop
      vertex -32.0055 5.78448 0
      vertex -35.0588 6.81052 0
      vertex -33.3102 7.29025 0
    endloop
  endfacet
  facet normal -0 0 -1
    outer loop
      vertex -33.3102 7.29025 0
      vertex -35.0588 6.81052 0
      vertex -34.9863 8.36742 0
    endloop
  endfacet
  facet normal 0 0 -1
    outer loop
      vertex -35.0588 6.81052 0
      vertex -36.898 8.92875 0
      vertex -34.9863 8.36742 0
    endloop
  endfacet
  facet normal 0 0 -1
    outer loop
      vertex -39.4837 4.74641 0
      vertex -35.0588 6.81052 0
      vertex -37.0588 3.34641 0
    endloop
  endfacet
  facet normal -0 0 -1
    outer loop
      vertex -35.0588 6.81052 0
      vertex -39.4837 4.74641 0
      vertex -36.898 8.92875 0
    endloop
  endfacet
  facet normal -0 0 -1
    outer loop
      vertex -36.898 8.92875 0
      vertex -39.4837 4.74641 0
      vertex -38.8904 8.92875 0
    endloop
  endfacet
  facet normal 0 0 -1
    outer loop
      vertex -39.4837 4.74641 0
      vertex -40.8021 8.36742 0
      vertex -38.8904 8.92875 0
    endloop
  endfacet
  facet normal 0 0 -1
    outer loop
      vertex -43.783 5.78448 0
      vertex -39.4837 4.74641 0
      vertex -40.8837 2.32153 0
    endloop
  endfacet
  facet normal 0 0 -1
    outer loop
      vertex -43.783 -1.78448 0
      vertex -40.8837 2.32153 0
      vertex -42.4783 -3.29025 0
    endloop
  endfacet
  facet normal 0 0 -1
    outer loop
      vertex -39.4837 4.74641 0
      vertex -42.4783 7.29025 0
      vertex -40.8021 8.36742 0
    endloop
  endfacet
  facet normal 0 0 -1
    outer loop
      vertex -44.6107 0.0278721 0
      vertex -40.8837 2.32153 0
      vertex -43.783 -1.78448 0
    endloop
  endfacet
  facet normal 0 0 -1
    outer loop
      vertex -39.4837 4.74641 0
      vertex -43.783 5.78448 0
      vertex -42.4783 7.29025 0
    endloop
  endfacet
  facet normal 0 0 -1
    outer loop
      vertex -44.8942 2 0
      vertex -40.8837 2.32153 0
      vertex -44.6107 0.0278721 0
    endloop
  endfacet
  facet normal 0 0 -1
    outer loop
      vertex -40.8837 2.32153 0
      vertex -44.6107 3.97213 0
      vertex -43.783 5.78448 0
    endloop
  endfacet
  facet normal -0 0 -1
    outer loop
      vertex -40.8837 2.32153 0
      vertex -44.8942 2 0
      vertex -44.6107 3.97213 0
    endloop
  endfacet
  facet normal 0 0 1
    outer loop
      vertex -31.1778 3.97213 0.4
      vertex -31.1778 0.0278721 0.4
      vertex -30.8942 2 0.4
    endloop
  endfacet
  facet normal 0 0 1
    outer loop
      vertex -32.0055 5.78448 0.4
      vertex -31.1778 0.0278721 0.4
      vertex -31.1778 3.97213 0.4
    endloop
  endfacet
  facet normal 0 0 1
    outer loop
      vertex -32.0055 5.78448 0.4
      vertex -32.0055 -1.78448 0.4
      vertex -31.1778 0.0278721 0.4
    endloop
  endfacet
  facet normal 0 0 1
    outer loop
      vertex -33.3102 7.29025 0.4
      vertex -32.0055 -1.78448 0.4
      vertex -32.0055 5.78448 0.4
    endloop
  endfacet
  facet normal 0 0 1
    outer loop
      vertex -33.3102 7.29025 0.4
      vertex -33.3102 -3.29025 0.4
      vertex -32.0055 -1.78448 0.4
    endloop
  endfacet
  facet normal 0 0 1
    outer loop
      vertex -34.9863 8.36742 0.4
      vertex -33.3102 -3.29025 0.4
      vertex -33.3102 7.29025 0.4
    endloop
  endfacet
  facet normal 0 0 1
    outer loop
      vertex -34.9863 8.36742 0.4
      vertex -34.9863 -4.36742 0.4
      vertex -33.3102 -3.29025 0.4
    endloop
  endfacet
  facet normal 0 0 1
    outer loop
      vertex -36.898 8.92875 0.4
      vertex -34.9863 -4.36742 0.4
      vertex -34.9863 8.36742 0.4
    endloop
  endfacet
  facet normal 0 0 1
    outer loop
      vertex -36.898 8.92875 0.4
      vertex -36.898 -4.92875 0.4
      vertex -34.9863 -4.36742 0.4
    endloop
  endfacet
  facet normal -0 0 1
    outer loop
      vertex -38.8904 8.92875 0.4
      vertex -36.898 -4.92875 0.4
      vertex -36.898 8.92875 0.4
    endloop
  endfacet
  facet normal 0 0 1
    outer loop
      vertex -38.8904 8.92875 0.4
      vertex -38.8904 -4.92875 0.4
      vertex -36.898 -4.92875 0.4
    endloop
  endfacet
  facet normal -0 0 1
    outer loop
      vertex -40.8021 8.36742 0.4
      vertex -38.8904 -4.92875 0.4
      vertex -38.8904 8.92875 0.4
    endloop
  endfacet
  facet normal 0 0 1
    outer loop
      vertex -40.8021 8.36742 0.4
      vertex -40.8021 -4.36742 0.4
      vertex -38.8904 -4.92875 0.4
    endloop
  endfacet
  facet normal -0 0 1
    outer loop
      vertex -42.4783 7.29025 0.4
      vertex -40.8021 -4.36742 0.4
      vertex -40.8021 8.36742 0.4
    endloop
  endfacet
  facet normal 0 0 1
    outer loop
      vertex -42.4783 7.29025 0.4
      vertex -42.4783 -3.29025 0.4
      vertex -40.8021 -4.36742 0.4
    endloop
  endfacet
  facet normal -0 0 1
    outer loop
      vertex -43.783 5.78448 0.4
      vertex -42.4783 -3.29025 0.4
      vertex -42.4783 7.29025 0.4
    endloop
  endfacet
  facet normal 0 0 1
    outer loop
      vertex -43.783 5.78448 0.4
      vertex -43.783 -1.78448 0.4
      vertex -42.4783 -3.29025 0.4
    endloop
  endfacet
  facet normal -0 0 1
    outer loop
      vertex -44.6107 3.97213 0.4
      vertex -43.783 -1.78448 0.4
      vertex -43.783 5.78448 0.4
    endloop
  endfacet
  facet normal 0 0 1
    outer loop
      vertex -44.6107 3.97213 0.4
      vertex -44.6107 0.0278721 0.4
      vertex -43.783 -1.78448 0.4
    endloop
  endfacet
  facet normal 0 -0 1
    outer loop
      vertex -44.6107 0.0278721 0.4
      vertex -44.6107 3.97213 0.4
      vertex -44.8942 2 0.4
    endloop
  endfacet
  facet normal -0.54062 0.841267 0
    outer loop
      vertex -40.8021 8.36742 0
      vertex -42.4783 7.29025 0.4
      vertex -40.8021 8.36742 0.4
    endloop
  endfacet
  facet normal -0.54062 0.841267 0
    outer loop
      vertex -42.4783 7.29025 0.4
      vertex -40.8021 8.36742 0
      vertex -42.4783 7.29025 0
    endloop
  endfacet
  facet normal 0.909627 -0.415426 0
    outer loop
      vertex -32.0055 -1.78448 0.4
      vertex -31.1778 0.0278721 0.2
      vertex -31.1778 0.0278721 0.4
    endloop
  endfacet
  facet normal 0.909627 -0.415426 0
    outer loop
      vertex -31.1778 0.0278721 0.2
      vertex -32.0055 -1.78448 0.4
      vertex -32.0055 -1.78448 0.2
    endloop
  endfacet
  facet normal -0.909627 -0.415426 0
    outer loop
      vertex -43.783 -1.78448 0
      vertex -44.6107 0.0278721 0.4
      vertex -44.6107 0.0278721 0
    endloop
  endfacet
  facet normal -0.909627 -0.415426 0
    outer loop
      vertex -44.6107 0.0278721 0.4
      vertex -43.783 -1.78448 0
      vertex -43.783 -1.78448 0.4
    endloop
  endfacet
  facet normal 0.281735 0.959492 -0
    outer loop
      vertex -34.9863 8.36742 0
      vertex -36.898 8.92875 0.4
      vertex -34.9863 8.36742 0.4
    endloop
  endfacet
  facet normal 0.281735 0.959492 0
    outer loop
      vertex -36.898 8.92875 0.4
      vertex -34.9863 8.36742 0
      vertex -36.898 8.92875 0
    endloop
  endfacet
  facet normal 0.540643 0.841252 -0
    outer loop
      vertex -33.3102 7.29025 0
      vertex -34.9863 8.36742 0.4
      vertex -33.3102 7.29025 0.4
    endloop
  endfacet
  facet normal 0.540643 0.841252 0
    outer loop
      vertex -34.9863 8.36742 0.4
      vertex -33.3102 7.29025 0
      vertex -34.9863 8.36742 0
    endloop
  endfacet
  facet normal -0.909627 0.415426 0
    outer loop
      vertex -44.6107 3.97213 0
      vertex -43.783 5.78448 0.4
      vertex -43.783 5.78448 0
    endloop
  endfacet
  facet normal -0.909627 0.415426 0
    outer loop
      vertex -43.783 5.78448 0.4
      vertex -44.6107 3.97213 0
      vertex -44.6107 3.97213 0.4
    endloop
  endfacet
  facet normal -0.989825 0.142291 0
    outer loop
      vertex -44.8942 2 0
      vertex -44.6107 3.97213 0.4
      vertex -44.6107 3.97213 0
    endloop
  endfacet
  facet normal -0.989825 0.142291 0
    outer loop
      vertex -44.6107 3.97213 0.4
      vertex -44.8942 2 0
      vertex -44.8942 2 0.4
    endloop
  endfacet
  facet normal -0.989825 -0.142291 0
    outer loop
      vertex -44.6107 0.0278721 0
      vertex -44.8942 2 0.4
      vertex -44.8942 2 0
    endloop
  endfacet
  facet normal -0.989825 -0.142291 0
    outer loop
      vertex -44.8942 2 0.4
      vertex -44.6107 0.0278721 0
      vertex -44.6107 0.0278721 0.4
    endloop
  endfacet
  facet normal -0.281735 0.959492 0
    outer loop
      vertex -38.8904 8.92875 0
      vertex -40.8021 8.36742 0.4
      vertex -38.8904 8.92875 0.4
    endloop
  endfacet
  facet normal -0.281735 0.959492 0
    outer loop
      vertex -40.8021 8.36742 0.4
      vertex -38.8904 8.92875 0
      vertex -40.8021 8.36742 0
    endloop
  endfacet
  facet normal 0.989817 -0.142347 0
    outer loop
      vertex -30.8942 2 0.4
      vertex -31.1243 0.399994 0.2
      vertex -30.8942 2 0
    endloop
  endfacet
  facet normal 0.989818 -0.14234 -6.25577e-05
    outer loop
      vertex -31.1778 0.0278721 0.4
      vertex -31.1243 0.399994 0.2
      vertex -30.8942 2 0.4
    endloop
  endfacet
  facet normal 0.989823 -0.142307 0
    outer loop
      vertex -31.1243 0.399994 0.2
      vertex -31.1778 0.0278721 0.4
      vertex -31.1778 0.0278721 0.2
    endloop
  endfacet
  facet normal 0.989817 -0.142347 0
    outer loop
      vertex -30.8942 2 0
      vertex -31.1243 0.399994 0.2
      vertex -31.1243 0.399994 0
    endloop
  endfacet
  facet normal 0.281735 -0.959492 0
    outer loop
      vertex -36.898 -4.92875 0
      vertex -34.9863 -4.36742 0.4
      vertex -36.898 -4.92875 0.4
    endloop
  endfacet
  facet normal 0.281735 -0.959492 0
    outer loop
      vertex -34.9863 -4.36742 0.4
      vertex -36.898 -4.92875 0
      vertex -34.9863 -4.36742 0
    endloop
  endfacet
  facet normal 0.755789 -0.654816 0
    outer loop
      vertex -32.0055 -1.78448 0.4
      vertex -32.459 -2.30791 0.2
      vertex -32.0055 -1.78448 0.2
    endloop
  endfacet
  facet normal 0.755764 -0.654844 0.000131566
    outer loop
      vertex -33.3102 -3.29025 0.4
      vertex -32.459 -2.30791 0.2
      vertex -32.0055 -1.78448 0.4
    endloop
  endfacet
  facet normal 0.755751 -0.65486 0
    outer loop
      vertex -33.3102 -3.29025 0
      vertex -32.459 -2.30791 0.2
      vertex -33.3102 -3.29025 0.4
    endloop
  endfacet
  facet normal 0.755751 -0.65486 0
    outer loop
      vertex -32.459 -2.30791 0.2
      vertex -33.3102 -3.29025 0
      vertex -32.459 -2.30791 0
    endloop
  endfacet
  facet normal -0.54062 -0.841267 0
    outer loop
      vertex -42.4783 -3.29025 0
      vertex -40.8021 -4.36742 0.4
      vertex -42.4783 -3.29025 0.4
    endloop
  endfacet
  facet normal -0.54062 -0.841267 -0
    outer loop
      vertex -40.8021 -4.36742 0.4
      vertex -42.4783 -3.29025 0
      vertex -40.8021 -4.36742 0
    endloop
  endfacet
  facet normal 0 -1 0
    outer loop
      vertex -38.8904 -4.92875 0
      vertex -36.898 -4.92875 0.4
      vertex -38.8904 -4.92875 0.4
    endloop
  endfacet
  facet normal 0 -1 -0
    outer loop
      vertex -36.898 -4.92875 0.4
      vertex -38.8904 -4.92875 0
      vertex -36.898 -4.92875 0
    endloop
  endfacet
  facet normal -0.755764 -0.654844 0
    outer loop
      vertex -42.4783 -3.29025 0
      vertex -43.783 -1.78448 0.4
      vertex -43.783 -1.78448 0
    endloop
  endfacet
  facet normal -0.755764 -0.654844 0
    outer loop
      vertex -43.783 -1.78448 0.4
      vertex -42.4783 -3.29025 0
      vertex -42.4783 -3.29025 0.4
    endloop
  endfacet
  facet normal 0.540643 -0.841252 0
    outer loop
      vertex -34.9863 -4.36742 0
      vertex -33.3102 -3.29025 0.4
      vertex -34.9863 -4.36742 0.4
    endloop
  endfacet
  facet normal 0.540643 -0.841252 0
    outer loop
      vertex -33.3102 -3.29025 0.4
      vertex -34.9863 -4.36742 0
      vertex -33.3102 -3.29025 0
    endloop
  endfacet
  facet normal -0.281735 -0.959492 0
    outer loop
      vertex -40.8021 -4.36742 0
      vertex -38.8904 -4.92875 0.4
      vertex -40.8021 -4.36742 0.4
    endloop
  endfacet
  facet normal -0.281735 -0.959492 -0
    outer loop
      vertex -38.8904 -4.92875 0.4
      vertex -40.8021 -4.36742 0
      vertex -38.8904 -4.92875 0
    endloop
  endfacet
  facet normal 0.989825 0.142291 0
    outer loop
      vertex 44.8942 2 0.4
      vertex 44.6107 3.97213 0
      vertex 44.6107 3.97213 0.4
    endloop
  endfacet
  facet normal 0.989825 0.142291 0
    outer loop
      vertex 44.6107 3.97213 0
      vertex 44.8942 2 0.4
      vertex 44.8942 2 0
    endloop
  endfacet
  facet normal 0 1 -0
    outer loop
      vertex 38.8904 8.92875 0
      vertex 36.898 8.92875 0.4
      vertex 38.8904 8.92875 0.4
    endloop
  endfacet
  facet normal 0 1 0
    outer loop
      vertex 36.898 8.92875 0.4
      vertex 38.8904 8.92875 0
      vertex 36.898 8.92875 0
    endloop
  endfacet
  facet normal 0.755764 0.654844 0
    outer loop
      vertex 43.783 5.78448 0.4
      vertex 42.4783 7.29025 0
      vertex 42.4783 7.29025 0.4
    endloop
  endfacet
  facet normal 0.755764 0.654844 0
    outer loop
      vertex 42.4783 7.29025 0
      vertex 43.783 5.78448 0.4
      vertex 43.783 5.78448 0
    endloop
  endfacet
  facet normal 0.909627 0.415426 0
    outer loop
      vertex 44.6107 3.97213 0.4
      vertex 43.783 5.78448 0
      vertex 43.783 5.78448 0.4
    endloop
  endfacet
  facet normal 0.909627 0.415426 0
    outer loop
      vertex 43.783 5.78448 0
      vertex 44.6107 3.97213 0.4
      vertex 44.6107 3.97213 0
    endloop
  endfacet
  facet normal -0.755764 0.654844 0
    outer loop
      vertex 32.0055 5.78448 0
      vertex 33.3102 7.29025 0.4
      vertex 33.3102 7.29025 0
    endloop
  endfacet
  facet normal -0.755764 0.654844 0
    outer loop
      vertex 33.3102 7.29025 0.4
      vertex 32.0055 5.78448 0
      vertex 32.0055 5.78448 0.4
    endloop
  endfacet
  facet normal 0 0 -1
    outer loop
      vertex 30.8942 2 0
      vertex 33.9411 1.5464 0
      vertex 31.9555 0.399994 0
    endloop
  endfacet
  facet normal 0 0 -1
    outer loop
      vertex 33.9411 1.5464 0
      vertex 31.1778 3.97213 0
      vertex 31.9412 5.0105 0
    endloop
  endfacet
  facet normal 0 0 -1
    outer loop
      vertex 30.8942 2 0
      vertex 31.9555 0.399994 0
      vertex 31.1243 0.399994 0
    endloop
  endfacet
  facet normal 0 0 -1
    outer loop
      vertex 33.9411 1.5464 0
      vertex 30.8942 2 0
      vertex 31.1778 3.97213 0
    endloop
  endfacet
  facet normal 0 0 -1
    outer loop
      vertex 40.8837 2.32153 0
      vertex 44.8942 2 0
      vertex 44.6107 0.0278721 0
    endloop
  endfacet
  facet normal 0 0 -1
    outer loop
      vertex 40.8837 2.32153 0
      vertex 44.6107 0.0278721 0
      vertex 43.783 -1.78448 0
    endloop
  endfacet
  facet normal 0 0 -1
    outer loop
      vertex 44.8942 2 0
      vertex 40.8837 2.32153 0
      vertex 44.6107 3.97213 0
    endloop
  endfacet
  facet normal 0 0 -1
    outer loop
      vertex 40.8837 2.32153 0
      vertex 43.783 -1.78448 0
      vertex 42.4783 -3.29025 0
    endloop
  endfacet
  facet normal -0 0 -1
    outer loop
      vertex 44.6107 3.97213 0
      vertex 40.8837 2.32153 0
      vertex 43.783 5.78448 0
    endloop
  endfacet
  facet normal 0 0 -1
    outer loop
      vertex 39.4837 4.74641 0
      vertex 43.783 5.78448 0
      vertex 40.8837 2.32153 0
    endloop
  endfacet
  facet normal 0 0 -1
    outer loop
      vertex 40.8021 -4.36742 0
      vertex 40.8837 2.32153 0
      vertex 42.4783 -3.29025 0
    endloop
  endfacet
  facet normal 0 0 -1
    outer loop
      vertex 38.8904 -4.92875 0
      vertex 40.8837 2.32153 0
      vertex 40.8021 -4.36742 0
    endloop
  endfacet
  facet normal 0 0 -1
    outer loop
      vertex 36.898 -4.92875 0
      vertex 40.8837 2.32153 0
      vertex 38.8904 -4.92875 0
    endloop
  endfacet
  facet normal 0 0 -1
    outer loop
      vertex 33.2171 -2.10478 0
      vertex 36.898 -4.92875 0
      vertex 34.9863 -4.36742 0
    endloop
  endfacet
  facet normal 0 0 -1
    outer loop
      vertex 33.2171 -2.10478 0
      vertex 34.9863 -4.36742 0
      vertex 33.3102 -3.29025 0
    endloop
  endfacet
  facet normal 0 0 -1
    outer loop
      vertex 36.898 -4.92875 0
      vertex 33.2171 -2.10478 0
      vertex 40.8837 2.32153 0
    endloop
  endfacet
  facet normal 0 -0 -1
    outer loop
      vertex 33.2171 -2.10478 0
      vertex 33.3102 -3.29025 0
      vertex 32.459 -2.30791 0
    endloop
  endfacet
  facet normal -0 0 -1
    outer loop
      vertex 43.783 5.78448 0
      vertex 39.4837 4.74641 0
      vertex 42.4783 7.29025 0
    endloop
  endfacet
  facet normal -0 0 -1
    outer loop
      vertex 42.4783 7.29025 0
      vertex 39.4837 4.74641 0
      vertex 40.8021 8.36742 0
    endloop
  endfacet
  facet normal 0 0 -1
    outer loop
      vertex 39.4837 4.74641 0
      vertex 38.8904 8.92875 0
      vertex 40.8021 8.36742 0
    endloop
  endfacet
  facet normal 0 0 -1
    outer loop
      vertex 35.0588 6.81052 0
      vertex 39.4837 4.74641 0
      vertex 37.0588 3.34641 0
    endloop
  endfacet
  facet normal 0 -0 -1
    outer loop
      vertex 36.898 8.92875 0
      vertex 39.4837 4.74641 0
      vertex 35.0588 6.81052 0
    endloop
  endfacet
  facet normal 0 0 -1
    outer loop
      vertex 39.4837 4.74641 0
      vertex 36.898 8.92875 0
      vertex 38.8904 8.92875 0
    endloop
  endfacet
  facet normal 0 0 -1
    outer loop
      vertex 35.0588 6.81052 0
      vertex 34.9863 8.36742 0
      vertex 36.898 8.92875 0
    endloop
  endfacet
  facet normal 0 0 -1
    outer loop
      vertex 35.0588 6.81052 0
      vertex 33.3102 7.29025 0
      vertex 34.9863 8.36742 0
    endloop
  endfacet
  facet normal -0 0 -1
    outer loop
      vertex 35.0588 6.81052 0
      vertex 32.0055 5.78448 0
      vertex 33.3102 7.29025 0
    endloop
  endfacet
  facet normal 0 0 -1
    outer loop
      vertex 31.9412 5.0105 0
      vertex 32.0055 5.78448 0
      vertex 35.0588 6.81052 0
    endloop
  endfacet
  facet normal 0 0 -1
    outer loop
      vertex 32.0055 5.78448 0
      vertex 31.9412 5.0105 0
      vertex 31.1778 3.97213 0
    endloop
  endfacet
  facet normal 0 0 1
    outer loop
      vertex 44.6107 3.97213 0.4
      vertex 44.6107 0.0278721 0.4
      vertex 44.8942 2 0.4
    endloop
  endfacet
  facet normal 0 0 1
    outer loop
      vertex 43.783 5.78448 0.4
      vertex 44.6107 0.0278721 0.4
      vertex 44.6107 3.97213 0.4
    endloop
  endfacet
  facet normal 0 0 1
    outer loop
      vertex 43.783 5.78448 0.4
      vertex 43.783 -1.78448 0.4
      vertex 44.6107 0.0278721 0.4
    endloop
  endfacet
  facet normal 0 0 1
    outer loop
      vertex 42.4783 7.29025 0.4
      vertex 43.783 -1.78448 0.4
      vertex 43.783 5.78448 0.4
    endloop
  endfacet
  facet normal 0 0 1
    outer loop
      vertex 42.4783 7.29025 0.4
      vertex 42.4783 -3.29025 0.4
      vertex 43.783 -1.78448 0.4
    endloop
  endfacet
  facet normal 0 0 1
    outer loop
      vertex 40.8021 8.36742 0.4
      vertex 42.4783 -3.29025 0.4
      vertex 42.4783 7.29025 0.4
    endloop
  endfacet
  facet normal 0 0 1
    outer loop
      vertex 40.8021 8.36742 0.4
      vertex 40.8021 -4.36742 0.4
      vertex 42.4783 -3.29025 0.4
    endloop
  endfacet
  facet normal 0 0 1
    outer loop
      vertex 38.8904 8.92875 0.4
      vertex 40.8021 -4.36742 0.4
      vertex 40.8021 8.36742 0.4
    endloop
  endfacet
  facet normal 0 0 1
    outer loop
      vertex 38.8904 8.92875 0.4
      vertex 38.8904 -4.92875 0.4
      vertex 40.8021 -4.36742 0.4
    endloop
  endfacet
  facet normal -0 0 1
    outer loop
      vertex 36.898 8.92875 0.4
      vertex 38.8904 -4.92875 0.4
      vertex 38.8904 8.92875 0.4
    endloop
  endfacet
  facet normal 0 0 1
    outer loop
      vertex 36.898 8.92875 0.4
      vertex 36.898 -4.92875 0.4
      vertex 38.8904 -4.92875 0.4
    endloop
  endfacet
  facet normal -0 0 1
    outer loop
      vertex 34.9863 8.36742 0.4
      vertex 36.898 -4.92875 0.4
      vertex 36.898 8.92875 0.4
    endloop
  endfacet
  facet normal 0 0 1
    outer loop
      vertex 34.9863 8.36742 0.4
      vertex 34.9863 -4.36742 0.4
      vertex 36.898 -4.92875 0.4
    endloop
  endfacet
  facet normal -0 0 1
    outer loop
      vertex 33.3102 7.29025 0.4
      vertex 34.9863 -4.36742 0.4
      vertex 34.9863 8.36742 0.4
    endloop
  endfacet
  facet normal 0 0 1
    outer loop
      vertex 33.3102 7.29025 0.4
      vertex 33.3102 -3.29025 0.4
      vertex 34.9863 -4.36742 0.4
    endloop
  endfacet
  facet normal -0 0 1
    outer loop
      vertex 32.0055 5.78448 0.4
      vertex 33.3102 -3.29025 0.4
      vertex 33.3102 7.29025 0.4
    endloop
  endfacet
  facet normal 0 0 1
    outer loop
      vertex 32.0055 5.78448 0.4
      vertex 32.0055 -1.78448 0.4
      vertex 33.3102 -3.29025 0.4
    endloop
  endfacet
  facet normal -0 0 1
    outer loop
      vertex 31.1778 3.97213 0.4
      vertex 32.0055 -1.78448 0.4
      vertex 32.0055 5.78448 0.4
    endloop
  endfacet
  facet normal 0 0 1
    outer loop
      vertex 31.1778 3.97213 0.4
      vertex 31.1778 0.0278721 0.4
      vertex 32.0055 -1.78448 0.4
    endloop
  endfacet
  facet normal 0 -0 1
    outer loop
      vertex 31.1778 0.0278721 0.4
      vertex 31.1778 3.97213 0.4
      vertex 30.8942 2 0.4
    endloop
  endfacet
  facet normal -0.540643 0.841252 0
    outer loop
      vertex 34.9863 8.36742 0
      vertex 33.3102 7.29025 0.4
      vertex 34.9863 8.36742 0.4
    endloop
  endfacet
  facet normal -0.540643 0.841252 0
    outer loop
      vertex 33.3102 7.29025 0.4
      vertex 34.9863 8.36742 0
      vertex 33.3102 7.29025 0
    endloop
  endfacet
  facet normal 0.755764 -0.654844 0
    outer loop
      vertex 42.4783 -3.29025 0.4
      vertex 43.783 -1.78448 0
      vertex 43.783 -1.78448 0.4
    endloop
  endfacet
  facet normal 0.755764 -0.654844 0
    outer loop
      vertex 43.783 -1.78448 0
      vertex 42.4783 -3.29025 0.4
      vertex 42.4783 -3.29025 0
    endloop
  endfacet
  facet normal -0.909627 -0.415426 0
    outer loop
      vertex 32.0055 -1.78448 0.2
      vertex 31.1778 0.0278721 0.4
      vertex 31.1778 0.0278721 0.2
    endloop
  endfacet
  facet normal -0.909627 -0.415426 0
    outer loop
      vertex 31.1778 0.0278721 0.4
      vertex 32.0055 -1.78448 0.2
      vertex 32.0055 -1.78448 0.4
    endloop
  endfacet
  facet normal 0.281735 0.959492 -0
    outer loop
      vertex 40.8021 8.36742 0
      vertex 38.8904 8.92875 0.4
      vertex 40.8021 8.36742 0.4
    endloop
  endfacet
  facet normal 0.281735 0.959492 0
    outer loop
      vertex 38.8904 8.92875 0.4
      vertex 40.8021 8.36742 0
      vertex 38.8904 8.92875 0
    endloop
  endfacet
  facet normal 0.54062 0.841267 -0
    outer loop
      vertex 42.4783 7.29025 0
      vertex 40.8021 8.36742 0.4
      vertex 42.4783 7.29025 0.4
    endloop
  endfacet
  facet normal 0.54062 0.841267 0
    outer loop
      vertex 40.8021 8.36742 0.4
      vertex 42.4783 7.29025 0
      vertex 40.8021 8.36742 0
    endloop
  endfacet
  facet normal -0.909627 0.415426 0
    outer loop
      vertex 31.1778 3.97213 0
      vertex 32.0055 5.78448 0.4
      vertex 32.0055 5.78448 0
    endloop
  endfacet
  facet normal -0.909627 0.415426 0
    outer loop
      vertex 32.0055 5.78448 0.4
      vertex 31.1778 3.97213 0
      vertex 31.1778 3.97213 0.4
    endloop
  endfacet
  facet normal -0.989818 0.14234 0
    outer loop
      vertex 30.8942 2 0
      vertex 31.1778 3.97213 0.4
      vertex 31.1778 3.97213 0
    endloop
  endfacet
  facet normal -0.989818 0.14234 0
    outer loop
      vertex 31.1778 3.97213 0.4
      vertex 30.8942 2 0
      vertex 30.8942 2 0.4
    endloop
  endfacet
  facet normal -0.989817 -0.142347 -0
    outer loop
      vertex 31.1243 0.399994 0.2
      vertex 30.8942 2 0
      vertex 31.1243 0.399994 0
    endloop
  endfacet
  facet normal -0.989817 -0.142347 0
    outer loop
      vertex 30.8942 2 0
      vertex 31.1243 0.399994 0.2
      vertex 30.8942 2 0.4
    endloop
  endfacet
  facet normal -0.989823 -0.142307 -0
    outer loop
      vertex 31.1778 0.0278721 0.4
      vertex 31.1243 0.399994 0.2
      vertex 31.1778 0.0278721 0.2
    endloop
  endfacet
  facet normal -0.989818 -0.14234 -6.25577e-05
    outer loop
      vertex 31.1243 0.399994 0.2
      vertex 31.1778 0.0278721 0.4
      vertex 30.8942 2 0.4
    endloop
  endfacet
  facet normal -0.281735 0.959492 0
    outer loop
      vertex 36.898 8.92875 0
      vertex 34.9863 8.36742 0.4
      vertex 36.898 8.92875 0.4
    endloop
  endfacet
  facet normal -0.281735 0.959492 0
    outer loop
      vertex 34.9863 8.36742 0.4
      vertex 36.898 8.92875 0
      vertex 34.9863 8.36742 0
    endloop
  endfacet
  facet normal 0.989825 -0.142291 0
    outer loop
      vertex 44.6107 0.0278721 0.4
      vertex 44.8942 2 0
      vertex 44.8942 2 0.4
    endloop
  endfacet
  facet normal 0.989825 -0.142291 0
    outer loop
      vertex 44.8942 2 0
      vertex 44.6107 0.0278721 0.4
      vertex 44.6107 0.0278721 0
    endloop
  endfacet
  facet normal 0.281735 -0.959492 0
    outer loop
      vertex 38.8904 -4.92875 0
      vertex 40.8021 -4.36742 0.4
      vertex 38.8904 -4.92875 0.4
    endloop
  endfacet
  facet normal 0.281735 -0.959492 0
    outer loop
      vertex 40.8021 -4.36742 0.4
      vertex 38.8904 -4.92875 0
      vertex 40.8021 -4.36742 0
    endloop
  endfacet
  facet normal -0.540643 -0.841252 0
    outer loop
      vertex 33.3102 -3.29025 0
      vertex 34.9863 -4.36742 0.4
      vertex 33.3102 -3.29025 0.4
    endloop
  endfacet
  facet normal -0.540643 -0.841252 -0
    outer loop
      vertex 34.9863 -4.36742 0.4
      vertex 33.3102 -3.29025 0
      vertex 34.9863 -4.36742 0
    endloop
  endfacet
  facet normal 0 -1 0
    outer loop
      vertex 36.898 -4.92875 0
      vertex 38.8904 -4.92875 0.4
      vertex 36.898 -4.92875 0.4
    endloop
  endfacet
  facet normal 0 -1 -0
    outer loop
      vertex 38.8904 -4.92875 0.4
      vertex 36.898 -4.92875 0
      vertex 38.8904 -4.92875 0
    endloop
  endfacet
  facet normal -0.755751 -0.65486 0
    outer loop
      vertex 32.459 -2.30791 0
      vertex 33.3102 -3.29025 0
      vertex 32.459 -2.30791 0.2
    endloop
  endfacet
  facet normal -0.755789 -0.654816 0
    outer loop
      vertex 32.459 -2.30791 0.2
      vertex 32.0055 -1.78448 0.4
      vertex 32.0055 -1.78448 0.2
    endloop
  endfacet
  facet normal -0.755751 -0.65486 -0
    outer loop
      vertex 33.3102 -3.29025 0.4
      vertex 32.459 -2.30791 0.2
      vertex 33.3102 -3.29025 0
    endloop
  endfacet
  facet normal -0.755764 -0.654844 0.000131566
    outer loop
      vertex 32.459 -2.30791 0.2
      vertex 33.3102 -3.29025 0.4
      vertex 32.0055 -1.78448 0.4
    endloop
  endfacet
  facet normal 0.909627 -0.415426 0
    outer loop
      vertex 43.783 -1.78448 0.4
      vertex 44.6107 0.0278721 0
      vertex 44.6107 0.0278721 0.4
    endloop
  endfacet
  facet normal 0.909627 -0.415426 0
    outer loop
      vertex 44.6107 0.0278721 0
      vertex 43.783 -1.78448 0.4
      vertex 43.783 -1.78448 0
    endloop
  endfacet
  facet normal 0.54062 -0.841267 0
    outer loop
      vertex 40.8021 -4.36742 0
      vertex 42.4783 -3.29025 0.4
      vertex 40.8021 -4.36742 0.4
    endloop
  endfacet
  facet normal 0.54062 -0.841267 0
    outer loop
      vertex 42.4783 -3.29025 0.4
      vertex 40.8021 -4.36742 0
      vertex 42.4783 -3.29025 0
    endloop
  endfacet
  facet normal -0.281735 -0.959492 0
    outer loop
      vertex 34.9863 -4.36742 0
      vertex 36.898 -4.92875 0.4
      vertex 34.9863 -4.36742 0.4
    endloop
  endfacet
  facet normal -0.281735 -0.959492 -0
    outer loop
      vertex 36.898 -4.92875 0.4
      vertex 34.9863 -4.36742 0
      vertex 36.898 -4.92875 0
    endloop
  endfacet
  facet normal 0 0 -1
    outer loop
      vertex 40.8837 2.32153 0.2
      vertex 37.0588 3.34641 0.2
      vertex 39.4837 4.74641 0.2
    endloop
  endfacet
  facet normal -0 0 -1
    outer loop
      vertex 37.0588 3.34641 0.2
      vertex 33.9411 1.5464 0.2
      vertex 35.0588 6.81052 0.2
    endloop
  endfacet
  facet normal 0 0 -1
    outer loop
      vertex 33.2171 -2.10478 0.2
      vertex 37.0588 3.34641 0.2
      vertex 40.8837 2.32153 0.2
    endloop
  endfacet
  facet normal 0 0 -1
    outer loop
      vertex 37.0588 3.34641 0.2
      vertex 33.2171 -2.10478 0.2
      vertex 33.9411 1.5464 0.2
    endloop
  endfacet
  facet normal 0 0 -1
    outer loop
      vertex 32.0055 -1.78448 0.2
      vertex 33.2171 -2.10478 0.2
      vertex 32.459 -2.30791 0.2
    endloop
  endfacet
  facet normal 0 0 -1
    outer loop
      vertex 33.2171 -2.10478 0.2
      vertex 32.0055 -1.78448 0.2
      vertex 31.9555 0.399994 0.2
    endloop
  endfacet
  facet normal 0 0 -1
    outer loop
      vertex 33.2171 -2.10478 0.2
      vertex 31.9555 0.399994 0.2
      vertex 33.9411 1.5464 0.2
    endloop
  endfacet
  facet normal 0 0 -1
    outer loop
      vertex 31.1778 0.0278721 0.2
      vertex 31.9555 0.399994 0.2
      vertex 32.0055 -1.78448 0.2
    endloop
  endfacet
  facet normal -0 0 -1
    outer loop
      vertex 31.9555 0.399994 0.2
      vertex 31.1778 0.0278721 0.2
      vertex 31.1243 0.399994 0.2
    endloop
  endfacet
  facet normal 0 0 -1
    outer loop
      vertex 35.0588 6.81052 0.2
      vertex 33.9411 1.5464 0.2
      vertex 31.9412 5.0105 0.2
    endloop
  endfacet
  facet normal 0 0 -1
    outer loop
      vertex -31.1778 0.0278721 0.2
      vertex -31.9555 0.399994 0.2
      vertex -31.1243 0.399994 0.2
    endloop
  endfacet
  facet normal 0 0 -1
    outer loop
      vertex -32.0055 -1.78448 0.2
      vertex -31.9555 0.399994 0.2
      vertex -31.1778 0.0278721 0.2
    endloop
  endfacet
  facet normal 0 0 -1
    outer loop
      vertex -33.2171 -2.10478 0.2
      vertex -32.0055 -1.78448 0.2
      vertex -32.459 -2.30791 0.2
    endloop
  endfacet
  facet normal -0 0 -1
    outer loop
      vertex -32.0055 -1.78448 0.2
      vertex -33.2171 -2.10478 0.2
      vertex -31.9555 0.399994 0.2
    endloop
  endfacet
  facet normal 0 0 -1
    outer loop
      vertex -33.2171 -2.10478 0.2
      vertex -33.9411 1.5464 0.2
      vertex -31.9555 0.399994 0.2
    endloop
  endfacet
  facet normal 0 0 -1
    outer loop
      vertex -37.0588 3.34641 0.2
      vertex -33.9411 1.5464 0.2
      vertex -33.2171 -2.10478 0.2
    endloop
  endfacet
  facet normal 0 0 -1
    outer loop
      vertex -33.9411 1.5464 0.2
      vertex -37.0588 3.34641 0.2
      vertex -35.0588 6.81052 0.2
    endloop
  endfacet
  facet normal 0 0 -1
    outer loop
      vertex -40.8837 2.32153 0.2
      vertex -37.0588 3.34641 0.2
      vertex -33.2171 -2.10478 0.2
    endloop
  endfacet
  facet normal -0 0 -1
    outer loop
      vertex -37.0588 3.34641 0.2
      vertex -40.8837 2.32153 0.2
      vertex -39.4837 4.74641 0.2
    endloop
  endfacet
  facet normal -0 0 -1
    outer loop
      vertex -31.9412 5.0105 0.2
      vertex -33.9411 1.5464 0.2
      vertex -35.0588 6.81052 0.2
    endloop
  endfacet
  facet normal -0.5 0.866026 0
    outer loop
      vertex 40.8837 2.32153 0
      vertex 33.2171 -2.10478 0.2
      vertex 40.8837 2.32153 0.2
    endloop
  endfacet
  facet normal -0.5 0.866026 0
    outer loop
      vertex 33.2171 -2.10478 0.2
      vertex 40.8837 2.32153 0
      vertex 33.2171 -2.10478 0
    endloop
  endfacet
  facet normal -0.866026 -0.499999 0
    outer loop
      vertex 40.8837 2.32153 0
      vertex 39.4837 4.74641 0.2
      vertex 39.4837 4.74641 0
    endloop
  endfacet
  facet normal -0.866026 -0.499999 0
    outer loop
      vertex 39.4837 4.74641 0.2
      vertex 40.8837 2.32153 0
      vertex 40.8837 2.32153 0.2
    endloop
  endfacet
  facet normal 0.499996 -0.866028 0
    outer loop
      vertex 37.0588 3.34641 0
      vertex 39.4837 4.74641 0.2
      vertex 37.0588 3.34641 0.2
    endloop
  endfacet
  facet normal 0.499996 -0.866028 0
    outer loop
      vertex 39.4837 4.74641 0.2
      vertex 37.0588 3.34641 0
      vertex 39.4837 4.74641 0
    endloop
  endfacet
  facet normal -0.866026 -0.499999 0
    outer loop
      vertex 37.0588 3.34641 0
      vertex 35.0588 6.81052 0.2
      vertex 35.0588 6.81052 0
    endloop
  endfacet
  facet normal -0.866026 -0.499999 0
    outer loop
      vertex 35.0588 6.81052 0.2
      vertex 37.0588 3.34641 0
      vertex 37.0588 3.34641 0.2
    endloop
  endfacet
  facet normal 0.500015 -0.866017 0
    outer loop
      vertex 31.9412 5.0105 0
      vertex 35.0588 6.81052 0.2
      vertex 31.9412 5.0105 0.2
    endloop
  endfacet
  facet normal 0.500015 -0.866017 0
    outer loop
      vertex 35.0588 6.81052 0.2
      vertex 31.9412 5.0105 0
      vertex 35.0588 6.81052 0
    endloop
  endfacet
  facet normal 0.866036 0.499981 0
    outer loop
      vertex 33.9411 1.5464 0.2
      vertex 31.9412 5.0105 0
      vertex 31.9412 5.0105 0.2
    endloop
  endfacet
  facet normal 0.866036 0.499981 0
    outer loop
      vertex 31.9412 5.0105 0
      vertex 33.9411 1.5464 0.2
      vertex 33.9411 1.5464 0
    endloop
  endfacet
  facet normal 0.500006 -0.866022 0
    outer loop
      vertex 31.9555 0.399994 0
      vertex 33.9411 1.5464 0.2
      vertex 31.9555 0.399994 0.2
    endloop
  endfacet
  facet normal 0.500006 -0.866022 0
    outer loop
      vertex 33.9411 1.5464 0.2
      vertex 31.9555 0.399994 0
      vertex 33.9411 1.5464 0
    endloop
  endfacet
  facet normal 0 -1 0
    outer loop
      vertex 31.1243 0.399994 0
      vertex 31.9555 0.399994 0.2
      vertex 31.1243 0.399994 0.2
    endloop
  endfacet
  facet normal 0 -1 -0
    outer loop
      vertex 31.9555 0.399994 0.2
      vertex 31.1243 0.399994 0
      vertex 31.9555 0.399994 0
    endloop
  endfacet
  facet normal 0 -1 0
    outer loop
      vertex -31.9555 0.399994 0
      vertex -31.1243 0.399994 0.2
      vertex -31.9555 0.399994 0.2
    endloop
  endfacet
  facet normal 0 -1 -0
    outer loop
      vertex -31.1243 0.399994 0.2
      vertex -31.9555 0.399994 0
      vertex -31.1243 0.399994 0
    endloop
  endfacet
  facet normal -0.500006 -0.866022 0
    outer loop
      vertex -33.9411 1.5464 0
      vertex -31.9555 0.399994 0.2
      vertex -33.9411 1.5464 0.2
    endloop
  endfacet
  facet normal -0.500006 -0.866022 -0
    outer loop
      vertex -31.9555 0.399994 0.2
      vertex -33.9411 1.5464 0
      vertex -31.9555 0.399994 0
    endloop
  endfacet
  facet normal -0.866036 0.499981 0
    outer loop
      vertex -33.9411 1.5464 0
      vertex -31.9412 5.0105 0.2
      vertex -31.9412 5.0105 0
    endloop
  endfacet
  facet normal -0.866036 0.499981 0
    outer loop
      vertex -31.9412 5.0105 0.2
      vertex -33.9411 1.5464 0
      vertex -33.9411 1.5464 0.2
    endloop
  endfacet
  facet normal -0.500015 -0.866017 0
    outer loop
      vertex -35.0588 6.81052 0
      vertex -31.9412 5.0105 0.2
      vertex -35.0588 6.81052 0.2
    endloop
  endfacet
  facet normal -0.500015 -0.866017 -0
    outer loop
      vertex -31.9412 5.0105 0.2
      vertex -35.0588 6.81052 0
      vertex -31.9412 5.0105 0
    endloop
  endfacet
  facet normal 0.866026 -0.499999 0
    outer loop
      vertex -37.0588 3.34641 0.2
      vertex -35.0588 6.81052 0
      vertex -35.0588 6.81052 0.2
    endloop
  endfacet
  facet normal 0.866026 -0.499999 0
    outer loop
      vertex -35.0588 6.81052 0
      vertex -37.0588 3.34641 0.2
      vertex -37.0588 3.34641 0
    endloop
  endfacet
  facet normal -0.499996 -0.866028 0
    outer loop
      vertex -39.4837 4.74641 0
      vertex -37.0588 3.34641 0.2
      vertex -39.4837 4.74641 0.2
    endloop
  endfacet
  facet normal -0.499996 -0.866028 -0
    outer loop
      vertex -37.0588 3.34641 0.2
      vertex -39.4837 4.74641 0
      vertex -37.0588 3.34641 0
    endloop
  endfacet
  facet normal 0.866026 -0.499999 0
    outer loop
      vertex -40.8837 2.32153 0.2
      vertex -39.4837 4.74641 0
      vertex -39.4837 4.74641 0.2
    endloop
  endfacet
  facet normal 0.866026 -0.499999 0
    outer loop
      vertex -39.4837 4.74641 0
      vertex -40.8837 2.32153 0.2
      vertex -40.8837 2.32153 0
    endloop
  endfacet
  facet normal 0.5 0.866026 -0
    outer loop
      vertex -33.2171 -2.10478 0
      vertex -40.8837 2.32153 0.2
      vertex -33.2171 -2.10478 0.2
    endloop
  endfacet
  facet normal 0.5 0.866026 0
    outer loop
      vertex -40.8837 2.32153 0.2
      vertex -33.2171 -2.10478 0
      vertex -40.8837 2.32153 0
    endloop
  endfacet
  facet normal 0.258816 0.965927 -0
    outer loop
      vertex -32.459 -2.30791 0
      vertex -33.2171 -2.10478 0.2
      vertex -32.459 -2.30791 0.2
    endloop
  endfacet
  facet normal 0.258816 0.965927 0
    outer loop
      vertex -33.2171 -2.10478 0.2
      vertex -32.459 -2.30791 0
      vertex -33.2171 -2.10478 0
    endloop
  endfacet
  facet normal -0.258816 0.965927 0
    outer loop
      vertex 33.2171 -2.10478 0
      vertex 32.459 -2.30791 0.2
      vertex 33.2171 -2.10478 0.2
    endloop
  endfacet
  facet normal -0.258816 0.965927 0
    outer loop
      vertex 32.459 -2.30791 0.2
      vertex 33.2171 -2.10478 0
      vertex 32.459 -2.30791 0
    endloop
  endfacet
endsolid OpenSCAD_Model
