solid OpenSCAD_Model
  facet normal 0 0 -1
    outer loop
      vertex 40.3373 2.46794 0
      vertex 36.9124 2.8 0
      vertex 39.3373 4.2 0
    endloop
  endfacet
  facet normal -0 0 -1
    outer loop
      vertex 36.9124 2.8 0
      vertex 34.4876 1.4 0
      vertex 34.9124 6.2641 0
    endloop
  endfacet
  facet normal -0 0 -1
    outer loop
      vertex 40.3373 2.46794 0
      vertex 34.4876 1.4 0
      vertex 36.9124 2.8 0
    endloop
  endfacet
  facet normal 0 0 -1
    outer loop
      vertex 33.0627 -1.73204 0
      vertex 34.4876 1.4 0
      vertex 40.3373 2.46794 0
    endloop
  endfacet
  facet normal 0 0 -1
    outer loop
      vertex 32.0627 0 0
      vertex 33.0627 -1.73204 0
      vertex 32.0627 -2 0
    endloop
  endfacet
  facet normal 0 0 -1
    outer loop
      vertex 33.0627 -1.73204 0
      vertex 32.0627 0 0
      vertex 34.4876 1.4 0
    endloop
  endfacet
  facet normal 0 0 -1
    outer loop
      vertex -32.0627 -2 0
      vertex 32.0627 0 0
      vertex 32.0627 -2 0
    endloop
  endfacet
  facet normal 0 0 -1
    outer loop
      vertex -32.0627 -2 0
      vertex -32.0627 0 0
      vertex 32.0627 0 0
    endloop
  endfacet
  facet normal 0 0 -1
    outer loop
      vertex -33.0627 -1.73204 0
      vertex -32.0627 0 0
      vertex -32.0627 -2 0
    endloop
  endfacet
  facet normal 0 0 -1
    outer loop
      vertex -33.0627 -1.73204 0
      vertex -34.4876 1.4 0
      vertex -32.0627 0 0
    endloop
  endfacet
  facet normal 0 0 -1
    outer loop
      vertex -34.4876 1.4 0
      vertex -36.9124 2.8 0
      vertex -34.9124 6.2641 0
    endloop
  endfacet
  facet normal 0 0 -1
    outer loop
      vertex -33.0627 -1.73204 0
      vertex -36.9124 2.8 0
      vertex -34.4876 1.4 0
    endloop
  endfacet
  facet normal 0 0 -1
    outer loop
      vertex -40.3373 2.46794 0
      vertex -36.9124 2.8 0
      vertex -33.0627 -1.73204 0
    endloop
  endfacet
  facet normal -0 0 -1
    outer loop
      vertex -36.9124 2.8 0
      vertex -40.3373 2.46794 0
      vertex -39.3373 4.2 0
    endloop
  endfacet
  facet normal 0 0 -1
    outer loop
      vertex 34.9124 6.2641 0
      vertex 34.4876 1.4 0
      vertex 32.4876 4.8641 0
    endloop
  endfacet
  facet normal -0 0 -1
    outer loop
      vertex -32.4876 4.8641 0
      vertex -34.4876 1.4 0
      vertex -34.9124 6.2641 0
    endloop
  endfacet
  facet normal 0 0 1
    outer loop
      vertex -32.4876 4.8641 6
      vertex -34.9124 6.2641 6
      vertex -34.4876 1.4 6
    endloop
  endfacet
  facet normal 0 0 1
    outer loop
      vertex 34.9124 6.2641 6
      vertex 32.4876 4.8641 6
      vertex 34.4876 1.4 6
    endloop
  endfacet
  facet normal -0 0 1
    outer loop
      vertex 36.9124 2.8 6
      vertex 40.3373 2.46794 6
      vertex 39.3373 4.2 6
    endloop
  endfacet
  facet normal 0 0 1
    outer loop
      vertex 34.4876 1.4 6
      vertex 36.9124 2.8 6
      vertex 34.9124 6.2641 6
    endloop
  endfacet
  facet normal 0 0 1
    outer loop
      vertex 34.4876 1.4 6
      vertex 40.3373 2.46794 6
      vertex 36.9124 2.8 6
    endloop
  endfacet
  facet normal -0 0 1
    outer loop
      vertex 34.4876 1.4 6
      vertex 33.0627 -1.73204 6
      vertex 40.3373 2.46794 6
    endloop
  endfacet
  facet normal -0 0 1
    outer loop
      vertex 32.0627 0 6
      vertex 33.0627 -1.73204 6
      vertex 34.4876 1.4 6
    endloop
  endfacet
  facet normal 0 0 1
    outer loop
      vertex 32.0627 0 6
      vertex 32.0627 -2 6
      vertex 33.0627 -1.73204 6
    endloop
  endfacet
  facet normal -0 0 1
    outer loop
      vertex 30.7971 -0.297433 6
      vertex 32.0627 -2 6
      vertex 32.0627 0 6
    endloop
  endfacet
  facet normal 0 0 1
    outer loop
      vertex 32.0627 -2 6
      vertex 30.7971 -0.297433 6
      vertex 31.0627 -2 6
    endloop
  endfacet
  facet normal 0 0 1
    outer loop
      vertex 32.0627 0 6
      vertex 30.7776 -0.172429 6
      vertex 30.7971 -0.297433 6
    endloop
  endfacet
  facet normal 0 0 1
    outer loop
      vertex 32.0627 0 6
      vertex -30.7776 -0.172429 6
      vertex 30.7776 -0.172429 6
    endloop
  endfacet
  facet normal 0 0 1
    outer loop
      vertex -32.0627 0 6
      vertex -30.7971 -0.297433 6
      vertex -30.7776 -0.172429 6
    endloop
  endfacet
  facet normal -0 0 1
    outer loop
      vertex -32.0627 0 6
      vertex -30.7776 -0.172429 6
      vertex 32.0627 0 6
    endloop
  endfacet
  facet normal 0 0 1
    outer loop
      vertex -32.0627 -2 6
      vertex -30.7971 -0.297433 6
      vertex -32.0627 0 6
    endloop
  endfacet
  facet normal 0 0 1
    outer loop
      vertex -30.7971 -0.297433 6
      vertex -32.0627 -2 6
      vertex -31.0627 -2 6
    endloop
  endfacet
  facet normal 0 0 1
    outer loop
      vertex -32.0627 0 6
      vertex -33.0627 -1.73204 6
      vertex -32.0627 -2 6
    endloop
  endfacet
  facet normal 0 0 1
    outer loop
      vertex -34.4876 1.4 6
      vertex -33.0627 -1.73204 6
      vertex -32.0627 0 6
    endloop
  endfacet
  facet normal -0 0 1
    outer loop
      vertex -36.9124 2.8 6
      vertex -34.4876 1.4 6
      vertex -34.9124 6.2641 6
    endloop
  endfacet
  facet normal 0 0 1
    outer loop
      vertex -36.9124 2.8 6
      vertex -33.0627 -1.73204 6
      vertex -34.4876 1.4 6
    endloop
  endfacet
  facet normal 0 0 1
    outer loop
      vertex -40.3373 2.46794 6
      vertex -36.9124 2.8 6
      vertex -39.3373 4.2 6
    endloop
  endfacet
  facet normal 0 0 1
    outer loop
      vertex -36.9124 2.8 6
      vertex -40.3373 2.46794 6
      vertex -33.0627 -1.73204 6
    endloop
  endfacet
  facet normal 0.499999 -0.866026 0
    outer loop
      vertex 33.0627 -1.73204 0
      vertex 40.3373 2.46794 6
      vertex 33.0627 -1.73204 6
    endloop
  endfacet
  facet normal 0.499999 -0.866026 0
    outer loop
      vertex 40.3373 2.46794 6
      vertex 33.0627 -1.73204 0
      vertex 40.3373 2.46794 0
    endloop
  endfacet
  facet normal 0.866027 0.499998 0
    outer loop
      vertex 40.3373 2.46794 6
      vertex 39.3373 4.2 0
      vertex 39.3373 4.2 6
    endloop
  endfacet
  facet normal 0.866027 0.499998 0
    outer loop
      vertex 39.3373 4.2 0
      vertex 40.3373 2.46794 6
      vertex 40.3373 2.46794 0
    endloop
  endfacet
  facet normal -0.499996 0.866028 0
    outer loop
      vertex 39.3373 4.2 0
      vertex 36.9124 2.8 6
      vertex 39.3373 4.2 6
    endloop
  endfacet
  facet normal -0.499996 0.866028 0
    outer loop
      vertex 36.9124 2.8 6
      vertex 39.3373 4.2 0
      vertex 36.9124 2.8 0
    endloop
  endfacet
  facet normal -0.499996 0.866028 0
    outer loop
      vertex 34.4876 1.4 0
      vertex 32.0627 0 6
      vertex 34.4876 1.4 6
    endloop
  endfacet
  facet normal -0.499996 0.866028 0
    outer loop
      vertex 32.0627 0 6
      vertex 34.4876 1.4 0
      vertex 32.0627 0 0
    endloop
  endfacet
  facet normal 0 1 -0
    outer loop
      vertex 32.0627 0 0
      vertex -32.0627 0 6
      vertex 32.0627 0 6
    endloop
  endfacet
  facet normal 0 1 0
    outer loop
      vertex -32.0627 0 6
      vertex 32.0627 0 0
      vertex -32.0627 0 0
    endloop
  endfacet
  facet normal 0.499996 0.866028 -0
    outer loop
      vertex -32.0627 0 0
      vertex -34.4876 1.4 6
      vertex -32.0627 0 6
    endloop
  endfacet
  facet normal 0.499996 0.866028 0
    outer loop
      vertex -34.4876 1.4 6
      vertex -32.0627 0 0
      vertex -34.4876 1.4 0
    endloop
  endfacet
  facet normal 0.499996 0.866028 -0
    outer loop
      vertex -36.9124 2.8 0
      vertex -39.3373 4.2 6
      vertex -36.9124 2.8 6
    endloop
  endfacet
  facet normal 0.499996 0.866028 0
    outer loop
      vertex -39.3373 4.2 6
      vertex -36.9124 2.8 0
      vertex -39.3373 4.2 0
    endloop
  endfacet
  facet normal -0.866027 0.499998 0
    outer loop
      vertex -40.3373 2.46794 0
      vertex -39.3373 4.2 6
      vertex -39.3373 4.2 0
    endloop
  endfacet
  facet normal -0.866027 0.499998 0
    outer loop
      vertex -39.3373 4.2 6
      vertex -40.3373 2.46794 0
      vertex -40.3373 2.46794 6
    endloop
  endfacet
  facet normal -0.499999 -0.866026 0
    outer loop
      vertex -40.3373 2.46794 0
      vertex -33.0627 -1.73204 6
      vertex -40.3373 2.46794 6
    endloop
  endfacet
  facet normal -0.499999 -0.866026 -0
    outer loop
      vertex -33.0627 -1.73204 6
      vertex -40.3373 2.46794 0
      vertex -33.0627 -1.73204 0
    endloop
  endfacet
  facet normal -0.258829 -0.965923 0
    outer loop
      vertex -33.0627 -1.73204 0
      vertex -32.0627 -2 6
      vertex -33.0627 -1.73204 6
    endloop
  endfacet
  facet normal -0.258829 -0.965923 -0
    outer loop
      vertex -32.0627 -2 6
      vertex -33.0627 -1.73204 0
      vertex -32.0627 -2 0
    endloop
  endfacet
  facet normal 0 -1 0
    outer loop
      vertex -32.0627 -2 0
      vertex -31.0627 -2 6
      vertex -32.0627 -2 6
    endloop
  endfacet
  facet normal 0 -1 -0
    outer loop
      vertex -31.0627 -2 6
      vertex -32.0627 -2 0
      vertex 31.0627 -2 6
    endloop
  endfacet
  facet normal 0 -1 0
    outer loop
      vertex 32.0627 -2 0
      vertex 31.0627 -2 6
      vertex -32.0627 -2 0
    endloop
  endfacet
  facet normal 0 -1 0
    outer loop
      vertex 31.0627 -2 6
      vertex 32.0627 -2 0
      vertex 32.0627 -2 6
    endloop
  endfacet
  facet normal 0.258829 -0.965923 0
    outer loop
      vertex 32.0627 -2 0
      vertex 33.0627 -1.73204 6
      vertex 32.0627 -2 6
    endloop
  endfacet
  facet normal 0.258829 -0.965923 0
    outer loop
      vertex 33.0627 -1.73204 6
      vertex 32.0627 -2 0
      vertex 33.0627 -1.73204 0
    endloop
  endfacet
  facet normal -0.866025 0.5 0
    outer loop
      vertex -36.9124 2.8 0
      vertex -34.9124 6.2641 6
      vertex -34.9124 6.2641 0
    endloop
  endfacet
  facet normal -0.866025 0.5 0
    outer loop
      vertex -34.9124 6.2641 6
      vertex -36.9124 2.8 0
      vertex -36.9124 2.8 6
    endloop
  endfacet
  facet normal 0.866025 -0.5 0
    outer loop
      vertex -34.4876 1.4 6
      vertex -32.4876 4.8641 0
      vertex -32.4876 4.8641 6
    endloop
  endfacet
  facet normal 0.866025 -0.5 0
    outer loop
      vertex -32.4876 4.8641 0
      vertex -34.4876 1.4 6
      vertex -34.4876 1.4 0
    endloop
  endfacet
  facet normal 0.500011 0.866019 -0
    outer loop
      vertex -32.4876 4.8641 0
      vertex -34.9124 6.2641 6
      vertex -32.4876 4.8641 6
    endloop
  endfacet
  facet normal 0.500011 0.866019 0
    outer loop
      vertex -34.9124 6.2641 6
      vertex -32.4876 4.8641 0
      vertex -34.9124 6.2641 0
    endloop
  endfacet
  facet normal 0.866025 0.5 0
    outer loop
      vertex 36.9124 2.8 6
      vertex 34.9124 6.2641 0
      vertex 34.9124 6.2641 6
    endloop
  endfacet
  facet normal 0.866025 0.5 0
    outer loop
      vertex 34.9124 6.2641 0
      vertex 36.9124 2.8 6
      vertex 36.9124 2.8 0
    endloop
  endfacet
  facet normal -0.500011 0.866019 0
    outer loop
      vertex 34.9124 6.2641 0
      vertex 32.4876 4.8641 6
      vertex 34.9124 6.2641 6
    endloop
  endfacet
  facet normal -0.500011 0.866019 0
    outer loop
      vertex 32.4876 4.8641 6
      vertex 34.9124 6.2641 0
      vertex 32.4876 4.8641 0
    endloop
  endfacet
  facet normal -0.866025 -0.5 0
    outer loop
      vertex 34.4876 1.4 0
      vertex 32.4876 4.8641 6
      vertex 32.4876 4.8641 0
    endloop
  endfacet
  facet normal -0.866025 -0.5 0
    outer loop
      vertex 32.4876 4.8641 6
      vertex 34.4876 1.4 0
      vertex 34.4876 1.4 6
    endloop
  endfacet
  facet normal 0 0.766044 -0.642788
    outer loop
      vertex 30.7776 -0.172429 6
      vertex -27.1799 9.35706 17.3568
      vertex 27.1799 9.35706 17.3568
    endloop
  endfacet
  facet normal 0 0.766044 -0.642788
    outer loop
      vertex -27.1799 9.35706 17.3568
      vertex 30.7776 -0.172429 6
      vertex -30.7776 -0.172429 6
    endloop
  endfacet
  facet normal -0.971795 0.151588 0.180656
    outer loop
      vertex -30.7776 -0.172429 6
      vertex -27.1799 8.2846 18.2567
      vertex -27.1799 9.35706 17.3568
    endloop
  endfacet
  facet normal -0.971794 0.151595 0.180651
    outer loop
      vertex -27.1799 8.2846 18.2567
      vertex -30.7776 -0.172429 6
      vertex -30.7971 -0.297433 6
    endloop
  endfacet
  facet normal 0.971795 0.151588 0.180656
    outer loop
      vertex 27.1799 8.2846 18.2567
      vertex 30.7776 -0.172429 6
      vertex 27.1799 9.35706 17.3568
    endloop
  endfacet
  facet normal 0.971794 0.151595 0.180651
    outer loop
      vertex 30.7776 -0.172429 6
      vertex 27.1799 8.2846 18.2567
      vertex 30.7971 -0.297433 6
    endloop
  endfacet
  facet normal -0.971794 0.1516 0.180647
    outer loop
      vertex -30.7971 -0.297433 6
      vertex -31.0627 -2 6
      vertex -27.1799 8.2846 18.2567
    endloop
  endfacet
  facet normal -0 0.642787 0.766045
    outer loop
      vertex -27.1799 9.35706 17.3568
      vertex 27.1799 8.2846 18.2567
      vertex 27.1799 9.35706 17.3568
    endloop
  endfacet
  facet normal 0 0.642787 0.766045
    outer loop
      vertex 27.1799 8.2846 18.2567
      vertex -27.1799 9.35706 17.3568
      vertex -27.1799 8.2846 18.2567
    endloop
  endfacet
  facet normal 0.971794 0.1516 0.180647
    outer loop
      vertex 30.7971 -0.297433 6
      vertex 27.1799 8.2846 18.2567
      vertex 31.0627 -2 6
    endloop
  endfacet
  facet normal 0 -0.766044 0.642788
    outer loop
      vertex -31.0627 -2 6
      vertex 27.1799 8.2846 18.2567
      vertex -27.1799 8.2846 18.2567
    endloop
  endfacet
  facet normal 0 -0.766044 0.642788
    outer loop
      vertex 27.1799 8.2846 18.2567
      vertex -31.0627 -2 6
      vertex 31.0627 -2 6
    endloop
  endfacet
endsolid OpenSCAD_Model
